Coordinates
version=1
nRows=17
nColumns=38
inDegrees=no

Units are S.I. units (second, meters, Newtons, ...)
If the header above contains a line with 'inDegrees', this indicates whether rotational values are in degrees (yes) or radians (no).

endheader
time	pelvis_tilt	pelvis_list	pelvis_rotation	pelvis_tx	pelvis_ty	pelvis_tz	hip_flexion_r	hip_adduction_r	hip_rotation_r	knee_angle_r	ankle_angle_r	subtalar_angle_r	mtp_angle_r	hip_flexion_l	hip_adduction_l	hip_rotation_l	knee_angle_l	ankle_angle_l	subtalar_angle_l	mtp_angle_l	lumbar_extension	lumbar_bending	lumbar_rotation	arm_flex_r	arm_add_r	arm_rot_r	elbow_flex_r	pro_sup_r	wrist_flex_r	wrist_dev_r	arm_flex_l	arm_add_l	arm_rot_l	elbow_flex_l	pro_sup_l	wrist_flex_l	wrist_dev_l
1.37	2.85839	1.38482	-1.35081	0.868996	0.295368	0.970114	-0.13368	0.103685	-0.24732	0.178197	0.0147277	0	0	0.147147	-0.292287	-0.261301	1.03344	-0.12015	0	0	-0.343397	0.0911688	0.149358	0.1838	-0.316471	1.07625	0.348567	0.635544	0	0	0.180529	-0.161142	0.117727	0.256638	1.5708	0	0
1.38	2.87556	1.38441	-1.37195	0.870114	0.303309	0.970715	-0.148602	0.101274	-0.242087	0.170267	0.0181737	0	0	0.157577	-0.291536	-0.271288	1.01299	-0.113034	0	0	-0.345099	0.0873835	0.152418	0.186229	-0.317266	1.07829	0.349716	0.633222	0	0	0.183709	-0.162338	0.12324	0.255221	1.5708	0	0
1.39	2.89227	1.38331	-1.39229	0.871169	0.31117	0.971343	-0.16423	0.0989747	-0.237258	0.162334	0.0210258	0	0	0.166213	-0.290619	-0.282356	0.989867	-0.105315	0	0	-0.347681	0.0836937	0.15515	0.18921	-0.317673	1.08221	0.350303	0.630716	0	0	0.187342	-0.163192	0.128004	0.253014	1.5708	0	0
1.4	2.90839	1.38186	-1.41158	0.872208	0.318951	0.971929	-0.180848	0.0972152	-0.231604	0.152759	0.0229691	0	0	0.173451	-0.289682	-0.294759	0.9643	-0.0973206	0	0	-0.350685	0.0799263	0.157199	0.192566	-0.316966	1.08518	0.349382	0.626969	0	0	0.190787	-0.163975	0.131457	0.251	1.5708	0	0
1.41	2.92548	1.38029	-1.4308	0.873148	0.326661	0.972433	-0.197482	0.0953566	-0.226214	0.143108	0.0247686	0	0	0.179778	-0.287891	-0.307701	0.936554	-0.0884786	0	0	-0.354024	0.0757686	0.159087	0.193235	-0.311778	1.05699	0.341673	0.668588	0	0	0.191733	-0.167508	0.152684	0.257184	1.5708	0	0
1.42	2.94163	1.37882	-1.44875	0.873952	0.334299	0.972822	-0.213574	0.0933383	-0.222633	0.133733	0.0270052	0	0	0.18535	-0.285188	-0.320638	0.906802	-0.0785643	0	0	-0.357269	0.0723571	0.158801	0.198263	-0.312753	1.07239	0.343969	0.651107	0	0	0.196418	-0.165953	0.141662	0.251115	1.5708	0	0
1.43	2.95848	1.37771	-1.46824	0.874801	0.341941	0.973091	-0.229582	0.0908859	-0.21802	0.123646	0.0292223	0	0	0.189704	-0.282177	-0.336803	0.874803	-0.0698561	0	0	-0.360295	0.0681557	0.159323	0.202498	-0.312613	1.08037	0.344722	0.640841	0	0	0.199327	-0.16566	0.137937	0.250093	1.5708	0	0
1.44	2.97466	1.37686	-1.48704	0.875561	0.349575	0.973243	-0.245105	0.088285	-0.213213	0.113885	0.0313765	0	0	0.193434	-0.278061	-0.352967	0.84069	-0.063246	0	0	-0.363072	0.0639334	0.159792	0.206438	-0.311877	1.08345	0.344404	0.635438	0	0	0.202304	-0.16541	0.135687	0.248701	1.5708	0	0
1.45	2.99081	1.37636	-1.50533	0.876193	0.357172	0.973266	-0.259699	0.0854559	-0.208916	0.105096	0.0340629	0	0	0.197084	-0.272472	-0.368107	0.804734	-0.0589354	0	0	-0.365533	0.0597483	0.159875	0.210298	-0.31105	1.08385	0.343649	0.633887	0	0	0.206094	-0.164979	0.133906	0.245195	1.5708	0	0
1.46	3.00479	1.37655	-1.5204	0.87665	0.364656	0.973093	-0.272756	0.0828004	-0.205684	0.0975449	0.037431	0	0	0.201499	-0.265871	-0.38146	0.767326	-0.0559726	0	0	-0.367497	0.056302	0.159093	0.214242	-0.31034	1.08194	0.343004	0.634227	0	0	0.210525	-0.164253	0.132126	0.240666	1.5708	0	0
1.47	3.01541	1.37699	-1.53219	0.877048	0.372156	0.972792	-0.285117	0.080612	-0.202734	0.0907625	0.0407862	0	0	0.20528	-0.259145	-0.394873	0.728111	-0.0532774	0	0	-0.369122	0.0535435	0.158538	0.21786	-0.309957	1.07892	0.342594	0.634891	0	0	0.214855	-0.163486	0.132601	0.236694	1.5708	0	0
1.48	3.02563	1.37732	-1.54457	0.877445	0.379698	0.972444	-0.297135	0.0780279	-0.199658	0.0848179	0.0444064	0	0	0.207325	-0.25181	-0.409736	0.686813	-0.0516035	0	0	-0.370949	0.0506485	0.15891	0.221611	-0.309849	1.07745	0.342059	0.636587	0	0	0.219143	-0.16256	0.132899	0.233114	1.5708	0	0
1.49	3.07269	1.37095	-1.59471	0.878355	0.386533	0.973308	-0.314939	0.0678288	-0.197551	0.0798965	0.0474046	0	0	0.201522	-0.236499	-0.425131	0.643171	-0.061984	0	0	-0.382815	0.0382156	0.158688	0.228596	-0.306742	1.07567	0.339327	0.638016	0	0	0.227484	-0.163568	0.133302	0.228636	1.5708	0	0
1.5	3.04577	1.37806	-1.5674	0.877877	0.394566	0.971422	-0.318874	0.0725848	-0.195808	0.0763441	0.0531422	0	0	0.208184	-0.232304	-0.434269	0.595361	-0.0546786	0	0	-0.37565	0.045115	0.159179	0.227854	-0.306173	1.04821	0.334492	0.680347	0	0	0.228155	-0.161177	0.139923	0.226049	1.5708	0	0
1.51	3.05472	1.37874	-1.57677	0.877847	0.401917	0.970718	-0.327956	0.0698817	-0.19593	0.0743881	0.0579614	0	0	0.208057	-0.219762	-0.440965	0.547297	-0.0531967	0	0	-0.378038	0.043036	0.158091	0.233094	-0.307197	1.0542	0.334799	0.671018	0	0	0.232656	-0.159779	0.136576	0.222236	1.5708	0	0
1.52	3.06336	1.37969	-1.58586	0.877671	0.409277	0.969908	-0.335616	0.0668043	-0.196337	0.0745699	0.0637636	0	0	0.206602	-0.205179	-0.444167	0.496226	-0.0470581	0	0	-0.380394	0.0410317	0.157326	0.238202	-0.308485	1.05871	0.335304	0.665199	0	0	0.236387	-0.158681	0.135604	0.220928	1.5708	0	0
1.53	3.07307	1.37994	-1.597	0.877533	0.416787	0.969088	-0.343822	0.0630529	-0.196376	0.0755182	0.0702781	0	0	0.201135	-0.189386	-0.447358	0.439726	-0.0475848	0	0	-0.383347	0.0383631	0.157477	0.243019	-0.309942	1.06438	0.336097	0.658706	0	0	0.240028	-0.157566	0.135363	0.219401	1.5708	0	0
